<svg width="320" height="165" viewBox="0 0 320 165" xmlns="http://www.w3.org/2000/svg">
  <rect x="0.5" y="0.5" width="319" height="164" rx="10" fill="#0D1117" stroke="#3D0808"/>
  <text x="24" y="34" font-family="'Segoe UI',-apple-system,Helvetica,Arial,sans-serif" font-size="17" font-weight="700" fill="#FFD166">Most Used Languages</text>

  <!-- stacked bar: C++ 51.6, Java 29.1, Python 4.3, HTML 4.0, C 3.4, TS 2.9, other 4.7 (of 272 px) -->
  <g>
    <rect x="24" y="50" width="140" height="10" fill="#f34b7d"/>
    <rect x="164" y="50" width="79"  height="10" fill="#b07219"/>
    <rect x="243" y="50" width="12"  height="10" fill="#3572A5"/>
    <rect x="255" y="50" width="11"  height="10" fill="#e34c26"/>
    <rect x="266" y="50" width="9"   height="10" fill="#9e9e9e"/>
    <rect x="275" y="50" width="8"   height="10" fill="#3178c6"/>
    <rect x="283" y="50" width="13"  height="10" fill="#6B4A00"/>
  </g>

  <g font-family="'Segoe UI',-apple-system,Helvetica,Arial,sans-serif" font-size="13" fill="#C9D1D9">
    <circle cx="30" cy="83" r="5" fill="#f34b7d"/><text x="42" y="88">C++ 51.6%</text>
    <circle cx="170" cy="83" r="5" fill="#b07219"/><text x="182" y="88">Java 29.1%</text>
    <circle cx="30" cy="108" r="5" fill="#3572A5"/><text x="42" y="113">Python 4.3%</text>
    <circle cx="170" cy="108" r="5" fill="#e34c26"/><text x="182" y="113">HTML 4.0%</text>
    <circle cx="30" cy="133" r="5" fill="#9e9e9e"/><text x="42" y="138">C 3.4%</text>
    <circle cx="170" cy="133" r="5" fill="#3178c6"/><text x="182" y="138">TypeScript 2.9%</text>
  </g>
</svg>
