<svg width="420" height="165" viewBox="0 0 420 165" xmlns="http://www.w3.org/2000/svg">
  <rect x="0.5" y="0.5" width="419" height="164" rx="10" fill="#0D1117" stroke="#3D0808"/>
  <text x="24" y="34" font-family="'Segoe UI',-apple-system,Helvetica,Arial,sans-serif" font-size="17" font-weight="700" fill="#FFD166">Tamir's GitHub Stats</text>

  <!-- contributions -->
  <polygon points="30,56 32.6,61.8 39,62.5 34.3,66.8 35.6,73 30,69.8 24.4,73 25.7,66.8 21,62.5 27.4,61.8" fill="#E62429"/>
  <text x="52" y="70" font-family="'Segoe UI',-apple-system,Helvetica,Arial,sans-serif" font-size="14" fill="#C9D1D9">Total Contributions</text>
  <text x="396" y="70" text-anchor="end" font-family="'Segoe UI',-apple-system,Helvetica,Arial,sans-serif" font-size="14" font-weight="700" fill="#FFD166">119</text>

  <!-- commits -->
  <circle cx="30" cy="90" r="6" fill="none" stroke="#E62429" stroke-width="2.5"/>
  <line x1="16" y1="90" x2="22" y2="90" stroke="#E62429" stroke-width="2.5"/>
  <line x1="38" y1="90" x2="44" y2="90" stroke="#E62429" stroke-width="2.5"/>
  <text x="52" y="95" font-family="'Segoe UI',-apple-system,Helvetica,Arial,sans-serif" font-size="14" fill="#C9D1D9">Commits (last year)</text>
  <text x="396" y="95" text-anchor="end" font-family="'Segoe UI',-apple-system,Helvetica,Arial,sans-serif" font-size="14" font-weight="700" fill="#FFD166">83</text>

  <!-- pull requests -->
  <circle cx="24" cy="110" r="4" fill="none" stroke="#E62429" stroke-width="2.2"/>
  <circle cx="24" cy="126" r="4" fill="none" stroke="#E62429" stroke-width="2.2"/>
  <circle cx="38" cy="126" r="4" fill="none" stroke="#E62429" stroke-width="2.2"/>
  <line x1="24" y1="114" x2="24" y2="122" stroke="#E62429" stroke-width="2.2"/>
  <path d="M28,110 Q38,110 38,122" fill="none" stroke="#E62429" stroke-width="2.2"/>
  <text x="52" y="120" font-family="'Segoe UI',-apple-system,Helvetica,Arial,sans-serif" font-size="14" fill="#C9D1D9">Pull Requests (last year)</text>
  <text x="396" y="120" text-anchor="end" font-family="'Segoe UI',-apple-system,Helvetica,Arial,sans-serif" font-size="14" font-weight="700" fill="#FFD166">8</text>

  <!-- repositories -->
  <rect x="22" y="138" width="16" height="13" rx="2" fill="none" stroke="#E62429" stroke-width="2.2"/>
  <line x1="26" y1="138" x2="26" y2="151" stroke="#E62429" stroke-width="2"/>
  <text x="52" y="149" font-family="'Segoe UI',-apple-system,Helvetica,Arial,sans-serif" font-size="14" fill="#C9D1D9">Repositories</text>
  <text x="396" y="149" text-anchor="end" font-family="'Segoe UI',-apple-system,Helvetica,Arial,sans-serif" font-size="14" font-weight="700" fill="#FFD166">16</text>
</svg>
